<svg width="1200" height="1200" viewBox="-3 -3 6 6" xmlns="http://www.w3.org/2000/svg" ><g transform="scale(0.0058823529411764705) translate(-290, -320)" fill-opacity="0.8" ><path d="M252.437 63.1884C335.993 63.1669 436.501 38.1972 493.5 101.5C548.813 162.931 514.008 227.369 508.5 311.189C576 538.689 488.501 518.499 461 546C407.188 590.583 490.199 696.765 422.5 683.5C365.557 672.342 333.351 673.552 293.5 613C178 437.5 94 683.5 7.00111 383.189C-25.4974 69.6889 66.3874 183.982 123 122.688C231.5 -111 168.902 63.21 252.437 63.1884Z" fill="#C5C5E0" ></path></g><g transform="scale(0.0058823529411764705) translate(-340, -310)" fill-opacity="0.8" ><path d="M299.139 81.1881C382.696 81.1665 409.202 -45.1147 466.202 18.1881C521.516 79.6189 471.71 220.18 466.202 304C533.703 531.5 617.001 609.5 516.501 609.5C327.798 609.5 386.299 723 312.001 661C237.704 599 387.708 442.916 342.001 406C283.489 358.742 75.5016 548.5 4.50065 406C-18.9991 262 62.3634 279.5 95.9998 192.5C162.5 20.5 215.604 81.2097 299.139 81.1881Z" fill="#D8D8D8" ></path></g><g style="filter: drop-shadow(rgba(15, 98, 254, 0.53) 0px 0.029px 0.039px);" ><g stroke="#0F62FE" style="--rotate: 90deg; --scale: 1.2189944199947573;" transform="rotate(90) scale(1.2189944199947573)" opacity="0.2" ><path stroke-width="0.01" fill="none" d="M -0.5 -0.8660254037844387 l 1 0 l 0.5000000000000001 0.8660254037844386 l -0.4999999999999998 0.8660254037844387 l -1 1.2246467991473532e-16 l -0.5000000000000004 -0.8660254037844384 l 0.49999999999999933 -0.866025403784439 z" ></path></g><g stroke="#0F62FE" style="--rotate: 87deg; --scale: 1.195092568622311;" transform="rotate(87) scale(1.195092568622311)" opacity="0.2" ><path stroke-width="0.01" fill="none" d="M -0.5 -0.8660254037844387 l 1 0 l 0.5000000000000001 0.8660254037844386 l -0.4999999999999998 0.8660254037844387 l -1 1.2246467991473532e-16 l -0.5000000000000004 -0.8660254037844384 l 0.49999999999999933 -0.866025403784439 z" ></path></g><g stroke="#FBF4E5" style="--rotate: 84deg; --scale: 1.1716593810022657;" transform="rotate(84) scale(1.1716593810022657)" opacity="1" ><path stroke-width="0.01" fill="none" d="M -0.5 -0.8660254037844387 l 1 0 l 0.5000000000000001 0.8660254037844386 l -0.4999999999999998 0.8660254037844387 l -1 1.2246467991473532e-16 l -0.5000000000000004 -0.8660254037844384 l 0.49999999999999933 -0.866025403784439 z" ></path></g><g stroke="#FBF4E5" style="--rotate: 81deg; --scale: 1.14868566764928;" transform="rotate(81) scale(1.14868566764928)" opacity="1" ><path stroke-width="0.01" fill="none" d="M -0.5 -0.8660254037844387 l 1 0 l 0.5000000000000001 0.8660254037844386 l -0.4999999999999998 0.8660254037844387 l -1 1.2246467991473532e-16 l -0.5000000000000004 -0.8660254037844384 l 0.49999999999999933 -0.866025403784439 z" ></path></g><g stroke="#FBF4E5" style="--rotate: 78deg; --scale: 1.126162419264;" transform="rotate(78) scale(1.126162419264)" opacity="1" ><path stroke-width="0.01" fill="none" d="M -0.5 -0.8660254037844387 l 1 0 l 0.5000000000000001 0.8660254037844386 l -0.4999999999999998 0.8660254037844387 l -1 1.2246467991473532e-16 l -0.5000000000000004 -0.8660254037844384 l 0.49999999999999933 -0.866025403784439 z" ></path></g><g stroke="#FBF4E5" style="--rotate: 75deg; --scale: 1.1040808032;" transform="rotate(75) scale(1.1040808032)" opacity="1" ><path stroke-width="0.01" fill="none" d="M -0.5 -0.8660254037844387 l 1 0 l 0.5000000000000001 0.8660254037844386 l -0.4999999999999998 0.8660254037844387 l -1 1.2246467991473532e-16 l -0.5000000000000004 -0.8660254037844384 l 0.49999999999999933 -0.866025403784439 z" ></path></g><g stroke="#FBF4E5" style="--rotate: 72deg; --scale: 1.08243216;" transform="rotate(72) scale(1.08243216)" opacity="1" ><path stroke-width="0.01" fill="none" d="M -0.5 -0.8660254037844387 l 1 0 l 0.5000000000000001 0.8660254037844386 l -0.4999999999999998 0.8660254037844387 l -1 1.2246467991473532e-16 l -0.5000000000000004 -0.8660254037844384 l 0.49999999999999933 -0.866025403784439 z" ></path></g><g stroke="#FBF4E5" style="--rotate: 69deg; --scale: 1.061208;" transform="rotate(69) scale(1.061208)" opacity="1" ><path stroke-width="0.01" fill="none" d="M -0.5 -0.8660254037844387 l 1 0 l 0.5000000000000001 0.8660254037844386 l -0.4999999999999998 0.8660254037844387 l -1 1.2246467991473532e-16 l -0.5000000000000004 -0.8660254037844384 l 0.49999999999999933 -0.866025403784439 z" ></path></g><g stroke="#F2F2F2" style="--rotate: 66deg; --scale: 1.0404;" transform="rotate(66) scale(1.0404)" opacity="1" ><path stroke-width="0.01" fill="none" d="M -0.5 -0.8660254037844387 l 1 0 l 0.5000000000000001 0.8660254037844386 l -0.4999999999999998 0.8660254037844387 l -1 1.2246467991473532e-16 l -0.5000000000000004 -0.8660254037844384 l 0.49999999999999933 -0.866025403784439 z" ></path></g><g stroke="#F2F2F2" style="--rotate: 63deg; --scale: 1.02;" transform="rotate(63) scale(1.02)" opacity="1" ><path stroke-width="0.01" fill="none" d="M -0.5 -0.8660254037844387 l 1 0 l 0.5000000000000001 0.8660254037844386 l -0.4999999999999998 0.8660254037844387 l -1 1.2246467991473532e-16 l -0.5000000000000004 -0.8660254037844384 l 0.49999999999999933 -0.866025403784439 z" ></path></g><g stroke="#F2F2F2" style="--rotate: 60deg; --scale: 1;" transform="rotate(60) scale(1)" opacity="1" ><path stroke-width="0.01" fill="none" d="M -0.5 -0.8660254037844387 l 1 0 l 0.5000000000000001 0.8660254037844386 l -0.4999999999999998 0.8660254037844387 l -1 1.2246467991473532e-16 l -0.5000000000000004 -0.8660254037844384 l 0.49999999999999933 -0.866025403784439 z" ></path></g></g><g style="filter: drop-shadow(rgba(15, 98, 254, 0.53) 0px 0.029px 0.039px);" ><g stroke="#0F62FE" style="--rotate: 105deg; --scale: 1.2189944199947573;" transform="rotate(105) scale(1.2189944199947573)" opacity="0.2" ><path stroke-width="0.01" fill="none" d="M -0.5 -0.8660254037844387 l 1 0 l 0.5000000000000001 0.8660254037844386 l -0.4999999999999998 0.8660254037844387 l -1 1.2246467991473532e-16 l -0.5000000000000004 -0.8660254037844384 l 0.49999999999999933 -0.866025403784439 z" ></path></g><g stroke="#0F62FE" style="--rotate: 102deg; --scale: 1.195092568622311;" transform="rotate(102) scale(1.195092568622311)" opacity="0.2" ><path stroke-width="0.01" fill="none" d="M -0.5 -0.8660254037844387 l 1 0 l 0.5000000000000001 0.8660254037844386 l -0.4999999999999998 0.8660254037844387 l -1 1.2246467991473532e-16 l -0.5000000000000004 -0.8660254037844384 l 0.49999999999999933 -0.866025403784439 z" ></path></g><g stroke="#0F62FE" style="--rotate: 99deg; --scale: 1.1716593810022657;" transform="rotate(99) scale(1.1716593810022657)" opacity="0.5" ><path stroke-width="0.01" fill="none" d="M -0.5 -0.8660254037844387 l 1 0 l 0.5000000000000001 0.8660254037844386 l -0.4999999999999998 0.8660254037844387 l -1 1.2246467991473532e-16 l -0.5000000000000004 -0.8660254037844384 l 0.49999999999999933 -0.866025403784439 z" ></path></g><g stroke="#0F62FE" style="--rotate: 96deg; --scale: 1.14868566764928;" transform="rotate(96) scale(1.14868566764928)" opacity="1" ><path stroke-width="0.01" fill="none" d="M -0.5 -0.8660254037844387 l 1 0 l 0.5000000000000001 0.8660254037844386 l -0.4999999999999998 0.8660254037844387 l -1 1.2246467991473532e-16 l -0.5000000000000004 -0.8660254037844384 l 0.49999999999999933 -0.866025403784439 z" ></path></g><g stroke="#0F62FE" style="--rotate: 93deg; --scale: 1.126162419264;" transform="rotate(93) scale(1.126162419264)" opacity="1" ><path stroke-width="0.01" fill="none" d="M -0.5 -0.8660254037844387 l 1 0 l 0.5000000000000001 0.8660254037844386 l -0.4999999999999998 0.8660254037844387 l -1 1.2246467991473532e-16 l -0.5000000000000004 -0.8660254037844384 l 0.49999999999999933 -0.866025403784439 z" ></path></g><g stroke="#0F62FE" style="--rotate: 90deg; --scale: 1.1040808032;" transform="rotate(90) scale(1.1040808032)" opacity="1" ><path stroke-width="0.01" fill="none" d="M -0.5 -0.8660254037844387 l 1 0 l 0.5000000000000001 0.8660254037844386 l -0.4999999999999998 0.8660254037844387 l -1 1.2246467991473532e-16 l -0.5000000000000004 -0.8660254037844384 l 0.49999999999999933 -0.866025403784439 z" ></path></g><g stroke="#0F62FE" style="--rotate: 87deg; --scale: 1.08243216;" transform="rotate(87) scale(1.08243216)" opacity="1" ><path stroke-width="0.01" fill="none" d="M -0.5 -0.8660254037844387 l 1 0 l 0.5000000000000001 0.8660254037844386 l -0.4999999999999998 0.8660254037844387 l -1 1.2246467991473532e-16 l -0.5000000000000004 -0.8660254037844384 l 0.49999999999999933 -0.866025403784439 z" ></path></g><g stroke="#0F62FE" style="--rotate: 84deg; --scale: 1.061208;" transform="rotate(84) scale(1.061208)" opacity="1" ><path stroke-width="0.01" fill="none" d="M -0.5 -0.8660254037844387 l 1 0 l 0.5000000000000001 0.8660254037844386 l -0.4999999999999998 0.8660254037844387 l -1 1.2246467991473532e-16 l -0.5000000000000004 -0.8660254037844384 l 0.49999999999999933 -0.866025403784439 z" ></path></g><g stroke="#F2F2F2" style="--rotate: 81deg; --scale: 1.0404;" transform="rotate(81) scale(1.0404)" opacity="1" ><path stroke-width="0.01" fill="none" d="M -0.5 -0.8660254037844387 l 1 0 l 0.5000000000000001 0.8660254037844386 l -0.4999999999999998 0.8660254037844387 l -1 1.2246467991473532e-16 l -0.5000000000000004 -0.8660254037844384 l 0.49999999999999933 -0.866025403784439 z" ></path></g><g stroke="#F2F2F2" style="--rotate: 78deg; --scale: 1.02;" transform="rotate(78) scale(1.02)" opacity="1" ><path stroke-width="0.01" fill="none" d="M -0.5 -0.8660254037844387 l 1 0 l 0.5000000000000001 0.8660254037844386 l -0.4999999999999998 0.8660254037844387 l -1 1.2246467991473532e-16 l -0.5000000000000004 -0.8660254037844384 l 0.49999999999999933 -0.866025403784439 z" ></path></g><g stroke="#F2F2F2" style="--rotate: 75deg; --scale: 1;" transform="rotate(75) scale(1)" opacity="1" ><path stroke-width="0.01" fill="none" d="M -0.5 -0.8660254037844387 l 1 0 l 0.5000000000000001 0.8660254037844386 l -0.4999999999999998 0.8660254037844387 l -1 1.2246467991473532e-16 l -0.5000000000000004 -0.8660254037844384 l 0.49999999999999933 -0.866025403784439 z" ></path></g></g></svg>