<svg width="800" height="800" viewBox="-2 -2 4 4" xmlns="http://www.w3.org/2000/svg" class="s-mei8s2nXX8LE"><g style="filter: drop-shadow(rgba(15, 98, 254, 0.53) 0px 0.029px 0.039px);" class="s-mei8s2nXX8LE"><g stroke="#0F62FE" transform="rotate(30) scale(1.1046221254112045)" opacity="0.2" class="s-mei8s2nXX8LE"><path stroke-width="0.01" fill="none" d="M -0.5 -0.8660254037844387 l 1 0 l 0.5000000000000001 0.8660254037844386 l -0.4999999999999998 0.8660254037844387 l -1 1.2246467991473532e-16 l -0.5000000000000004 -0.8660254037844384 l 0.49999999999999933 -0.866025403784439 z" class="s-mei8s2nXX8LE"></path></g><g stroke="#0F62FE" transform="rotate(27) scale(1.0936852726843609)" opacity="0.5" class="s-mei8s2nXX8LE"><path stroke-width="0.01" fill="none" d="M -0.5 -0.8660254037844387 l 1 0 l 0.5000000000000001 0.8660254037844386 l -0.4999999999999998 0.8660254037844387 l -1 1.2246467991473532e-16 l -0.5000000000000004 -0.8660254037844384 l 0.49999999999999933 -0.866025403784439 z" class="s-mei8s2nXX8LE"></path></g><g stroke="#0F62FE" transform="rotate(24) scale(1.0828567056280802)" opacity="1" class="s-mei8s2nXX8LE"><path stroke-width="0.01" fill="none" d="M -0.5 -0.8660254037844387 l 1 0 l 0.5000000000000001 0.8660254037844386 l -0.4999999999999998 0.8660254037844387 l -1 1.2246467991473532e-16 l -0.5000000000000004 -0.8660254037844384 l 0.49999999999999933 -0.866025403784439 z" class="s-mei8s2nXX8LE"></path></g><g stroke="#0F62FE" transform="rotate(21) scale(1.07213535210701)" opacity="1" class="s-mei8s2nXX8LE"><path stroke-width="0.01" fill="none" d="M -0.5 -0.8660254037844387 l 1 0 l 0.5000000000000001 0.8660254037844386 l -0.4999999999999998 0.8660254037844387 l -1 1.2246467991473532e-16 l -0.5000000000000004 -0.8660254037844384 l 0.49999999999999933 -0.866025403784439 z" class="s-mei8s2nXX8LE"></path></g><g stroke="#0F62FE" transform="rotate(18) scale(1.0615201506010001)" opacity="1" class="s-mei8s2nXX8LE"><path stroke-width="0.01" fill="none" d="M -0.5 -0.8660254037844387 l 1 0 l 0.5000000000000001 0.8660254037844386 l -0.4999999999999998 0.8660254037844387 l -1 1.2246467991473532e-16 l -0.5000000000000004 -0.8660254037844384 l 0.49999999999999933 -0.866025403784439 z" class="s-mei8s2nXX8LE"></path></g><g stroke="#0F62FE" transform="rotate(15) scale(1.0510100501000001)" opacity="1" class="s-mei8s2nXX8LE"><path stroke-width="0.01" fill="none" d="M -0.5 -0.8660254037844387 l 1 0 l 0.5000000000000001 0.8660254037844386 l -0.4999999999999998 0.8660254037844387 l -1 1.2246467991473532e-16 l -0.5000000000000004 -0.8660254037844384 l 0.49999999999999933 -0.866025403784439 z" class="s-mei8s2nXX8LE"></path></g><g stroke="#F2F2F2" transform="rotate(12) scale(1.04060401)" opacity="1" class="s-mei8s2nXX8LE"><path stroke-width="0.01" fill="none" d="M -0.5 -0.8660254037844387 l 1 0 l 0.5000000000000001 0.8660254037844386 l -0.4999999999999998 0.8660254037844387 l -1 1.2246467991473532e-16 l -0.5000000000000004 -0.8660254037844384 l 0.49999999999999933 -0.866025403784439 z" class="s-mei8s2nXX8LE"></path></g><g stroke="#F2F2F2" transform="rotate(9) scale(1.030301)" opacity="1" class="s-mei8s2nXX8LE"><path stroke-width="0.01" fill="none" d="M -0.5 -0.8660254037844387 l 1 0 l 0.5000000000000001 0.8660254037844386 l -0.4999999999999998 0.8660254037844387 l -1 1.2246467991473532e-16 l -0.5000000000000004 -0.8660254037844384 l 0.49999999999999933 -0.866025403784439 z" class="s-mei8s2nXX8LE"></path></g><g stroke="#F2F2F2" transform="rotate(6) scale(1.0201)" opacity="1" class="s-mei8s2nXX8LE"><path stroke-width="0.01" fill="none" d="M -0.5 -0.8660254037844387 l 1 0 l 0.5000000000000001 0.8660254037844386 l -0.4999999999999998 0.8660254037844387 l -1 1.2246467991473532e-16 l -0.5000000000000004 -0.8660254037844384 l 0.49999999999999933 -0.866025403784439 z" class="s-mei8s2nXX8LE"></path></g><g stroke="#F2F2F2" transform="rotate(3) scale(1.01)" opacity="1" class="s-mei8s2nXX8LE"><path stroke-width="0.01" fill="none" d="M -0.5 -0.8660254037844387 l 1 0 l 0.5000000000000001 0.8660254037844386 l -0.4999999999999998 0.8660254037844387 l -1 1.2246467991473532e-16 l -0.5000000000000004 -0.8660254037844384 l 0.49999999999999933 -0.866025403784439 z" class="s-mei8s2nXX8LE"></path></g><g stroke="#F2F2F2" transform="rotate(0) scale(1)" opacity="1" class="s-mei8s2nXX8LE"><path stroke-width="0.01" fill="none" d="M -0.5 -0.8660254037844387 l 1 0 l 0.5000000000000001 0.8660254037844386 l -0.4999999999999998 0.8660254037844387 l -1 1.2246467991473532e-16 l -0.5000000000000004 -0.8660254037844384 l 0.49999999999999933 -0.866025403784439 z" class="s-mei8s2nXX8LE"></path></g></g></svg>